PathFileType	4	(X/Y/Z)	8_coords_data.trc
DataRate	CameraRate	NumFrames	NumMarkers	Units	OrigDataRate	OrigDataStartFrame	OrigNumFrames
30.0	30.0	7	21	m	30.0	32	62
Frame#	Time	THUMB_TIP	THUMB_IP	THUMB_MCP	THUMB_CMC	INDEX_TIP	INDEX_DIP	INDEX_PIP	INDEX_MCP	MIDDLE_TIP	MIDDLE_DIP	MIDDLE_PIP	MIDDLE_MCP	RING_TIP	RING_DIP	RING_PIP	RING_MCP	PINKY_TIP	PINKY_DIP	PINKY_PIP	PINKY_MCP	WRIST
X1	Y1	Z1	X2	Y2	Z2	X3	Y3	Z3	X4	Y4	Z4	X5	Y5	Z5	X6	Y6	Z6	X7	Y7	Z7	X8	Y8	Z8	X9	Y9	Z9	X10	Y10	Z10	X11	Y11	Z11	X12	Y12	Z12	X13	Y13	Z13	X14	Y14	Z14	X15	Y15	Z15	X16	Y16	Z16	X17	Y17	Z17	X18	Y18	Z18	X19	Y19	Z19	X20	Y20	Z20	X21	Y21	Z21
30	1.0333333333333288	0.4726229006673558	-0.038127432274998374	-0.1706830906974567	0.4806367961809136	-0.03380715974732296	-0.1495853959422378	0.4807682457670993	-0.02990304625648943	-0.11870561908331306	0.4799865008802895	-0.026574310242141297	-0.07422867683815942	0.511347286360067	-0.014902063678582378	-0.10095468933554398	0.5288115611156885	-0.013349746328325751	-0.10549224573786586	0.5404407979553796	0.004849568307360386	-0.11835908802016937	0.5005913182576656	0.019347122464482447	-0.11442513513753409	0.5149864486024307	-0.015265022314507437	-0.08721183057193481	0.5322656352993708	-0.010470047701531149	-0.08974913732382846	0.5475412279234537	0.012252354300944401	-0.09973704337169231	0.5066135497850479	0.029694039945844852	-0.09563086691864836	0.5214298051254699	-0.00506396930950781	-0.07324762797320314	0.5384029443158347	0.0008938274156201631	-0.07443809183513164	0.551104363298063	0.021764352985679025	-0.079262518979096	0.5127714738947413	0.03424507953695144	-0.07617352420003365	0.5207617685827653	-0.011290779503380532	-0.05881417996997093	0.5368998363130251	-0.005625447451758192	-0.058130965012282265	0.544370876143754	0.013995792486098169	-0.05808070420516717	0.5126489083586735	0.03092578325328177	-0.05525658957127064	0.4622830810018608	-0.023011742144276925	-0.051989820119430985
31	1.0666666666666622	0.47299294588784857	-0.038055817015199556	-0.1710583896416431	0.4805482367382907	-0.03392675679770729	-0.14975420127678046	0.4803324016133932	-0.030148901008141604	-0.11885919810746347	0.4797498944484637	-0.02677046143081896	-0.07438294791227296	0.5169026844175748	-0.01689326396030466	-0.10316646767324116	0.5334079561813543	-0.012450618982254746	-0.10915302842235175	0.5413149306421559	0.00760154479497821	-0.12209135581530545	0.5007416216156343	0.01840200816598747	-0.11496445749907629	0.5210573348634087	-0.017181765472692123	-0.08983473589654134	0.5373010734677519	-0.009898356486112259	-0.0931653378973785	0.5489855550790295	0.014902633440661894	-0.10305438932447533	0.5070580608299015	0.028770367536755548	-0.09627802613841624	0.5274477568401531	-0.00654691101546534	-0.07589244592737696	0.5432694570724221	0.0019464416210428492	-0.0774851677336375	0.5525419149667684	0.02459226354787447	-0.08210774849072655	0.5134036871448403	0.03333712356484453	-0.07696504684252167	0.5279664806745568	-0.011765984586496137	-0.06110507642436569	0.5428723484726539	-0.0033967851772404023	-0.06022666511195854	0.5470156249123856	0.017181198350143312	-0.05978863167637383	0.5135228411380738	0.030039484212961765	-0.056076304816136374	0.4622830810018609	-0.023011742144276925	-0.051989820119430985
32	1.0999999999999952	0.47358296615237505	-0.037587071518744075	-0.17151156228947956	0.4805871927718195	-0.0337998229580887	-0.14995703706150756	0.4799159296761314	-0.03033283007100307	-0.11903213825525008	0.47948156154672905	-0.026995653887787463	-0.07455107959596971	0.5241559850554438	-0.018870047149549096	-0.10617177283593364	0.5386908172290529	-0.010954836111794486	-0.11352623324529237	0.5417822503109578	0.010689428503178111	-0.12593504800646727	0.501031005372815	0.017314316554395415	-0.11549076783498928	0.5288534790580154	-0.018855426340681047	-0.09330440928470528	0.5433761589592383	-0.008765577647540157	-0.0972142330449457	0.5502108720509719	0.018002171505252296	-0.1064977588970594	0.5076564042399174	0.02767955751150286	-0.09692627048595209	0.5352064042051243	-0.007996028773265884	-0.0792202439147644	0.5489883118230654	0.003488273828088473	-0.08100064167118468	0.5537178274017905	0.027602839570468163	-0.0850378907899592	0.5142095086662946	0.03221717086004117	-0.07779071675834301	0.5370701475341955	-0.011663462438127437	-0.06382688182429819	0.5496746025287392	-0.00015299537329693802	-0.06254748265282148	0.5494547500995838	0.020817385671964672	-0.061544087054898444	0.5146064849213412	0.028896083931909677	-0.05693794989979209	0.462283081001861	-0.023011742144276925	-0.051989820119430985
33	1.1333333333333284	0.47430674212313995	-0.03673964759031445	-0.1720087594975816	0.4806973086226589	-0.033429283279995836	-0.15018670304205486	0.47949036253537936	-0.03043819953990312	-0.11922839722274116	0.4791741205170311	-0.027257180171079476	-0.07473490211659106	0.5334256810527874	-0.020276285523522564	-0.11026255455305631	0.5444001879818803	-0.008535218758379148	-0.11861165922839334	0.5417224250120682	0.013909412124717191	-0.12961520243042882	0.5014298536858298	0.016103357165172527	-0.11600155504703301	0.5386182759252183	-0.019746065767929366	-0.09772165956252701	0.5503737497653668	-0.006614569937549497	-0.1018897109118149	0.55100855708179	0.021416894520764562	-0.10984229351077548	0.5083521875018369	0.02647660722282319	-0.097554846150519	0.5451418938291646	-0.008793125800017343	-0.08327621615117647	0.5554433528538391	0.005910892481185592	-0.08491077674931932	0.5545090849822432	0.030620298512003763	-0.08786921825596986	0.5151523903450914	0.03091720902462658	-0.07861269269907248	0.5482986273788936	-0.010282080508396962	-0.06707919394879297	0.5568015681582997	0.004435491988122875	-0.06505606322845173	0.5513586816711225	0.024637321353096042	-0.0633030384151049	0.5158314290145822	0.027539727345326503	-0.057800874374055594	0.462283081001861	-0.023011742144276925	-0.051989820119430985
34	1.1666666666666616	0.4751350976490841	-0.035577199676869564	-0.17249541244831695	0.48086790055322404	-0.03285921287135807	-0.1504104058015588	0.4790742755542351	-0.0304872155683803	-0.11942691764806534	0.4788503858428771	-0.02754733792654973	-0.07491627855078645	0.5445941261446262	-0.020111259665011372	-0.11591111919569391	0.5499757461878279	-0.004989692772161436	-0.12430018233860075	0.5411459040565599	0.01692341921960383	-0.1328943224220087	0.5019135448484913	0.014845901858416832	-0.11645832514216457	0.5503702032879014	-0.018949489597827274	-0.10322518007178391	0.557827886600467	-0.00291713786395964	-0.10714266108527101	0.5512626828036306	0.024891563732370448	-0.11288581045058252	0.5090892765256733	0.025226964353251335	-0.09813998967526213	0.5572946460467271	-0.007655662036206934	-0.08806509503634395	0.5620820725285438	0.009697844328815486	-0.0890327543360627	0.5548398643577531	0.03348408071179576	-0.09042751544246008	0.5161437924326208	0.029525056200293665	-0.07939751197544737	0.5614319490225036	-0.006228012742700129	-0.07059942016260765	0.5633762043642212	0.010501787063490475	-0.0675443146634502	0.5525348689341851	0.028294819397556292	-0.06495868795947041	0.5170969322432432	0.02605944036473762	-0.058631036367574524	0.4622830810018608	-0.023011742144276925	-0.051989820119430985
35	1.1999999999999948	0.4760019283071998	-0.03396006356079884	-0.17292681460895834	0.4810814156369486	-0.03196482671405576	-0.15060602075228022	0.47869661180269885	-0.03037067267435345	-0.11961261204059041	0.47854347475717973	-0.027834430345368477	-0.07507685086045615	0.5560388667134134	-0.016874538221031354	-0.12307174481870156	0.5546682938045859	-0.00025605518692628504	-0.13013910299179232	0.5402414608514172	0.019601642926783125	-0.1355749239570323	0.5024796051197079	0.013616489951592703	-0.11681709120478867	0.5634536520316284	-0.015150712683149159	-0.10964506139801364	0.5648222931459009	0.0026692414505501416	-0.11257355182367293	0.5510687298664723	0.028210925606288795	-0.11537915650132158	0.5098694755031995	0.02398803877820943	-0.0986179934227168	0.570420622279327	-0.002930648996764429	-0.09321935496026358	0.5681031284078258	0.014945748306183337	-0.09296708204709328	0.5548193543284102	0.03600517756962429	-0.09249616347114642	0.5171655670146037	0.028089550233836302	-0.08007618042737574	0.5741860139358825	0.0018850076068976929	-0.07354503332884352	0.5684474760923351	0.017529143064412	-0.06962965222285705	0.5530735639956167	0.031441864730895386	-0.06632949742749733	0.5183751410945217	0.02448490961255434	-0.05936503946882182	0.4622830810018608	-0.023011742144276925	-0.051989820119430985
36	1.233333333333328	0.47689917064256104	-0.03203143146995113	-0.17326438222430954	0.4813606108651698	-0.030824706865928975	-0.15075573129027672	0.47837964547984657	-0.0301439345370782	-0.11978041217315094	0.4782561621505037	-0.028104168676027275	-0.07521906000448952	0.5655703643822453	-0.01062987105094737	-0.13085173585486062	0.5579929775401046	0.005139616595102425	-0.1355321704528049	0.5392664543767173	0.021792288152208905	-0.13753608991781752	0.5031086742223986	0.012502995105469483	-0.11704316277200075	0.5758081994925869	-0.007459488014548654	-0.11649884509731019	0.5702603061699807	0.00974309733531753	-0.11763547914639991	0.5505530952898636	0.031210741347619142	-0.11721637308859734	0.5106425438040376	0.02284486196305502	-0.09895965204619325	0.5815617585153466	0.005571681040071108	-0.0980758096884754	0.5726786839220461	0.021167918726029966	-0.0963881024232956	0.5545654119358375	0.03809293051024165	-0.0940146380654577	0.5181667081258063	0.026694389167621124	-0.080600896968724	0.5831321355440333	0.012674662507802359	-0.07538517829982783	0.5715663781358453	0.02455081132654524	-0.0711201642541279	0.5531499816023903	0.0338940303344456	-0.06733167955797956	0.519597776821515	0.022902573795959724	-0.059961408972391245	0.4622830810018608	-0.023011742144276925	-0.051989820119430985
